<mxfile host="app.diagrams.net" modified="2022-09-22T13:47:01.466Z" agent="5.0 (Macintosh; Intel Mac OS X 10_15_7) AppleWebKit/537.36 (KHTML, like Gecko) Chrome/105.0.0.0 Safari/537.36" etag="7MEumvkvVghZ4fc3v7dB" version="20.3.5" type="github">
  <diagram id="cwuAHb5kfraua9O70WIg" name="Page-1">
    <mxGraphModel dx="1186" dy="642" grid="1" gridSize="10" guides="1" tooltips="1" connect="1" arrows="1" fold="1" page="1" pageScale="1" pageWidth="850" pageHeight="1100" math="0" shadow="0">
      <root>
        <mxCell id="0" />
        <mxCell id="1" parent="0" />
        <mxCell id="NB_EdpPb3LNE-C1aPvxd-1" value="Actor" style="shape=umlActor;verticalLabelPosition=bottom;verticalAlign=top;html=1;outlineConnect=0;" parent="1" vertex="1">
          <mxGeometry x="20" y="140" width="50" height="120" as="geometry" />
        </mxCell>
        <mxCell id="NB_EdpPb3LNE-C1aPvxd-2" value="frontend" style="rounded=1;whiteSpace=wrap;html=1;" parent="1" vertex="1">
          <mxGeometry x="130" y="170" width="80" height="60" as="geometry" />
        </mxCell>
        <mxCell id="NB_EdpPb3LNE-C1aPvxd-3" value="stock-info" style="shape=cylinder3;whiteSpace=wrap;html=1;boundedLbl=1;backgroundOutline=1;size=15;" parent="1" vertex="1">
          <mxGeometry x="270" y="50" width="60" height="80" as="geometry" />
        </mxCell>
        <mxCell id="NB_EdpPb3LNE-C1aPvxd-4" value="indicators" style="shape=cylinder3;whiteSpace=wrap;html=1;boundedLbl=1;backgroundOutline=1;size=15;" parent="1" vertex="1">
          <mxGeometry x="270" y="290" width="60" height="80" as="geometry" />
        </mxCell>
        <mxCell id="NB_EdpPb3LNE-C1aPvxd-5" value="" style="endArrow=classic;html=1;rounded=0;entryX=1;entryY=0.5;entryDx=0;entryDy=0;exitX=0;exitY=0.5;exitDx=0;exitDy=0;exitPerimeter=0;" parent="1" source="NB_EdpPb3LNE-C1aPvxd-3" target="NB_EdpPb3LNE-C1aPvxd-2" edge="1">
          <mxGeometry width="50" height="50" relative="1" as="geometry">
            <mxPoint x="400" y="370" as="sourcePoint" />
            <mxPoint x="450" y="320" as="targetPoint" />
          </mxGeometry>
        </mxCell>
        <mxCell id="NB_EdpPb3LNE-C1aPvxd-6" value="" style="endArrow=classic;html=1;rounded=0;entryX=1;entryY=0.5;entryDx=0;entryDy=0;exitX=0.017;exitY=0.588;exitDx=0;exitDy=0;exitPerimeter=0;" parent="1" source="NB_EdpPb3LNE-C1aPvxd-4" target="NB_EdpPb3LNE-C1aPvxd-2" edge="1">
          <mxGeometry width="50" height="50" relative="1" as="geometry">
            <mxPoint x="400" y="370" as="sourcePoint" />
            <mxPoint x="450" y="320" as="targetPoint" />
          </mxGeometry>
        </mxCell>
        <mxCell id="NB_EdpPb3LNE-C1aPvxd-7" value="wsb-crawler" style="rounded=1;whiteSpace=wrap;html=1;" parent="1" vertex="1">
          <mxGeometry x="560" y="305" width="90" height="40" as="geometry" />
        </mxCell>
        <mxCell id="NB_EdpPb3LNE-C1aPvxd-8" value="wallstreetbets" style="ellipse;whiteSpace=wrap;html=1;" parent="1" vertex="1">
          <mxGeometry x="690" y="300" width="120" height="50" as="geometry" />
        </mxCell>
        <mxCell id="NB_EdpPb3LNE-C1aPvxd-9" value="wsb-aggregator" style="rounded=1;whiteSpace=wrap;html=1;" parent="1" vertex="1">
          <mxGeometry x="400" y="305" width="90" height="40" as="geometry" />
        </mxCell>
        <mxCell id="NB_EdpPb3LNE-C1aPvxd-11" value="wsb-data-stream" style="strokeWidth=2;html=1;shape=mxgraph.flowchart.direct_data;whiteSpace=wrap;" parent="1" vertex="1">
          <mxGeometry x="470" y="410" width="160" height="30" as="geometry" />
        </mxCell>
        <mxCell id="NB_EdpPb3LNE-C1aPvxd-12" value="archive" style="shape=cylinder3;whiteSpace=wrap;html=1;boundedLbl=1;backgroundOutline=1;size=15;" parent="1" vertex="1">
          <mxGeometry x="340" y="400" width="60" height="80" as="geometry" />
        </mxCell>
        <mxCell id="NB_EdpPb3LNE-C1aPvxd-13" value="" style="endArrow=classic;html=1;rounded=0;entryX=1;entryY=0.5;entryDx=0;entryDy=0;entryPerimeter=0;exitX=0;exitY=0.5;exitDx=0;exitDy=0;" parent="1" source="NB_EdpPb3LNE-C1aPvxd-9" target="NB_EdpPb3LNE-C1aPvxd-4" edge="1">
          <mxGeometry width="50" height="50" relative="1" as="geometry">
            <mxPoint x="400" y="360" as="sourcePoint" />
            <mxPoint x="450" y="310" as="targetPoint" />
          </mxGeometry>
        </mxCell>
        <mxCell id="NB_EdpPb3LNE-C1aPvxd-14" value="" style="endArrow=classic;html=1;rounded=0;entryX=0.5;entryY=0;entryDx=0;entryDy=0;entryPerimeter=0;exitX=0.5;exitY=1;exitDx=0;exitDy=0;" parent="1" source="NB_EdpPb3LNE-C1aPvxd-9" target="NB_EdpPb3LNE-C1aPvxd-12" edge="1">
          <mxGeometry width="50" height="50" relative="1" as="geometry">
            <mxPoint x="410" y="335" as="sourcePoint" />
            <mxPoint x="340" y="340" as="targetPoint" />
          </mxGeometry>
        </mxCell>
        <mxCell id="NB_EdpPb3LNE-C1aPvxd-16" value="" style="endArrow=classic;html=1;rounded=0;entryX=0.75;entryY=1;entryDx=0;entryDy=0;exitX=0.313;exitY=-0.017;exitDx=0;exitDy=0;exitPerimeter=0;" parent="1" source="NB_EdpPb3LNE-C1aPvxd-11" target="NB_EdpPb3LNE-C1aPvxd-9" edge="1">
          <mxGeometry width="50" height="50" relative="1" as="geometry">
            <mxPoint x="465" y="365" as="sourcePoint" />
            <mxPoint x="390" y="420" as="targetPoint" />
          </mxGeometry>
        </mxCell>
        <mxCell id="NB_EdpPb3LNE-C1aPvxd-17" value="" style="endArrow=classic;html=1;rounded=0;entryX=0.606;entryY=0.017;entryDx=0;entryDy=0;entryPerimeter=0;exitX=0.5;exitY=1;exitDx=0;exitDy=0;" parent="1" source="NB_EdpPb3LNE-C1aPvxd-7" target="NB_EdpPb3LNE-C1aPvxd-11" edge="1">
          <mxGeometry width="50" height="50" relative="1" as="geometry">
            <mxPoint x="475" y="375" as="sourcePoint" />
            <mxPoint x="400" y="430" as="targetPoint" />
          </mxGeometry>
        </mxCell>
        <mxCell id="NB_EdpPb3LNE-C1aPvxd-18" value="" style="endArrow=classic;html=1;rounded=0;entryX=1;entryY=0.5;entryDx=0;entryDy=0;exitX=0;exitY=0.5;exitDx=0;exitDy=0;" parent="1" source="NB_EdpPb3LNE-C1aPvxd-8" target="NB_EdpPb3LNE-C1aPvxd-7" edge="1">
          <mxGeometry width="50" height="50" relative="1" as="geometry">
            <mxPoint x="615" y="355" as="sourcePoint" />
            <mxPoint x="576.96" y="420.51" as="targetPoint" />
          </mxGeometry>
        </mxCell>
        <mxCell id="PI4uhEXnwu2ix2PgJ05R-2" value="" style="edgeStyle=orthogonalEdgeStyle;rounded=0;orthogonalLoop=1;jettySize=auto;html=1;" edge="1" parent="1" source="PI4uhEXnwu2ix2PgJ05R-1" target="NB_EdpPb3LNE-C1aPvxd-3">
          <mxGeometry relative="1" as="geometry" />
        </mxCell>
        <mxCell id="PI4uhEXnwu2ix2PgJ05R-1" value="yahoo-crawler&lt;br&gt;" style="rounded=1;whiteSpace=wrap;html=1;" vertex="1" parent="1">
          <mxGeometry x="380" y="70" width="90" height="40" as="geometry" />
        </mxCell>
      </root>
    </mxGraphModel>
  </diagram>
</mxfile>
